<mxfile host="65bd71144e">
    <diagram id="CxXoy3ew8gUjza3bv-u6" name="Page-1">
        <mxGraphModel dx="732" dy="567" grid="1" gridSize="10" guides="1" tooltips="1" connect="1" arrows="1" fold="1" page="1" pageScale="1" pageWidth="2336" pageHeight="1654" math="0" shadow="0">
            <root>
                <mxCell id="0"/>
                <mxCell id="1" parent="0"/>
                <mxCell id="2" value="Order" style="swimlane;childLayout=stackLayout;resizeParent=1;resizeParentMax=0;horizontal=0;startSize=20;horizontalStack=0;strokeColor=#000000;" parent="1" vertex="1">
                    <mxGeometry x="100" y="220" width="2160" height="660" as="geometry"/>
                </mxCell>
                <mxCell id="3" value="customer" style="swimlane;startSize=20;horizontal=0;fillColor=#f0a30a;fontColor=#000000;strokeColor=#BD7000;" parent="2" vertex="1">
                    <mxGeometry x="20" width="2140" height="295" as="geometry">
                        <mxRectangle x="20" width="1860" height="20" as="alternateBounds"/>
                    </mxGeometry>
                </mxCell>
                <mxCell id="4" value="" style="edgeStyle=orthogonalEdgeStyle;rounded=0;orthogonalLoop=1;jettySize=auto;html=1;" parent="3" source="5" target="7" edge="1">
                    <mxGeometry relative="1" as="geometry"/>
                </mxCell>
                <mxCell id="5" value="&lt;font style=&quot;font-size: 24px&quot;&gt;شروع&lt;/font&gt;" style="ellipse;whiteSpace=wrap;html=1;aspect=fixed;fillColor=#0050ef;strokeColor=#001DBC;fontColor=#ffffff;" parent="3" vertex="1">
                    <mxGeometry x="40" y="75" width="75" height="75" as="geometry"/>
                </mxCell>
                <mxCell id="6" value="" style="edgeStyle=orthogonalEdgeStyle;rounded=0;orthogonalLoop=1;jettySize=auto;html=1;" parent="3" source="7" target="8" edge="1">
                    <mxGeometry relative="1" as="geometry"/>
                </mxCell>
                <mxCell id="7" value="&lt;font style=&quot;font-size: 15px&quot;&gt;ثبت سفارش داخلی&amp;nbsp;&lt;/font&gt;" style="whiteSpace=wrap;html=1;fillColor=#60a917;strokeColor=#2D7600;fontColor=#ffffff;" parent="3" vertex="1">
                    <mxGeometry x="150" y="75" width="100" height="70" as="geometry"/>
                </mxCell>
                <mxCell id="8" value="&lt;font style=&quot;font-size: 19px&quot;&gt;پرداخت در محل&amp;nbsp;&lt;/font&gt;" style="whiteSpace=wrap;html=1;fillColor=#60a917;strokeColor=#2D7600;fontColor=#ffffff;" parent="3" vertex="1">
                    <mxGeometry x="300" y="85" width="120" height="60" as="geometry"/>
                </mxCell>
                <mxCell id="9" value="" style="edgeStyle=orthogonalEdgeStyle;rounded=0;orthogonalLoop=1;jettySize=auto;html=1;" parent="3" source="10" target="12" edge="1">
                    <mxGeometry relative="1" as="geometry"/>
                </mxCell>
                <mxCell id="10" value="&lt;font style=&quot;font-size: 14px&quot;&gt;ثبت آدرس فرستنده&lt;/font&gt;" style="whiteSpace=wrap;html=1;fillColor=#60a917;strokeColor=#2D7600;fontColor=#ffffff;" parent="3" vertex="1">
                    <mxGeometry x="450" y="85" width="90" height="60" as="geometry"/>
                </mxCell>
                <mxCell id="11" value="" style="edgeStyle=orthogonalEdgeStyle;rounded=0;orthogonalLoop=1;jettySize=auto;html=1;" parent="3" source="12" target="13" edge="1">
                    <mxGeometry relative="1" as="geometry"/>
                </mxCell>
                <mxCell id="12" value="&lt;font style=&quot;font-size: 14px&quot;&gt;ثبت اطلاعات مرسوله&amp;nbsp;&lt;/font&gt;" style="whiteSpace=wrap;html=1;fillColor=#60a917;strokeColor=#2D7600;fontColor=#ffffff;" parent="3" vertex="1">
                    <mxGeometry x="580" y="85" width="110" height="60" as="geometry"/>
                </mxCell>
                <mxCell id="13" value="&lt;font style=&quot;font-size: 18px&quot;&gt;ثبت آدرس گیرنده&amp;nbsp;&lt;/font&gt;" style="whiteSpace=wrap;html=1;fillColor=#60a917;strokeColor=#2D7600;fontColor=#ffffff;" parent="3" vertex="1">
                    <mxGeometry x="765" y="85" width="120" height="60" as="geometry"/>
                </mxCell>
                <mxCell id="14" value="&lt;font style=&quot;font-size: 21px&quot;&gt;انتخاب خدمات&lt;/font&gt;" style="rounded=0;whiteSpace=wrap;html=1;fillColor=#60a917;strokeColor=#2D7600;fontColor=#ffffff;" parent="3" vertex="1">
                    <mxGeometry x="1080" y="100" width="120" height="60" as="geometry"/>
                </mxCell>
                <mxCell id="24" value="&lt;font style=&quot;font-size: 14px&quot;&gt;تماس با پشتیبانی و درخواست ایجاد دسترسی&amp;nbsp;&lt;/font&gt;" style="whiteSpace=wrap;html=1;fontColor=#ffffff;strokeColor=#2D7600;fillColor=#60a917;" parent="3" vertex="1">
                    <mxGeometry x="400" y="230" width="110" height="50" as="geometry"/>
                </mxCell>
                <mxCell id="64" style="edgeStyle=orthogonalEdgeStyle;rounded=0;orthogonalLoop=1;jettySize=auto;html=1;exitX=1;exitY=0.5;exitDx=0;exitDy=0;" parent="3" source="16" target="14" edge="1">
                    <mxGeometry relative="1" as="geometry"/>
                </mxCell>
                <mxCell id="65" style="edgeStyle=orthogonalEdgeStyle;rounded=0;orthogonalLoop=1;jettySize=auto;html=1;exitX=0.5;exitY=0;exitDx=0;exitDy=0;entryX=0.5;entryY=0;entryDx=0;entryDy=0;" parent="3" source="16" target="10" edge="1">
                    <mxGeometry relative="1" as="geometry"/>
                </mxCell>
                <mxCell id="16" value="ثبت مرسوله جدید" style="rhombus;whiteSpace=wrap;html=1;fillColor=#a20025;strokeColor=#6F0000;fontColor=#ffffff;" parent="3" vertex="1">
                    <mxGeometry x="920" y="70" width="120" height="120" as="geometry"/>
                </mxCell>
                <mxCell id="70" value="&lt;font color=&quot;#000000&quot; style=&quot;font-size: 16px&quot;&gt;خیر&lt;/font&gt;" style="text;html=1;strokeColor=none;fillColor=none;align=center;verticalAlign=middle;whiteSpace=wrap;rounded=0;" parent="3" vertex="1">
                    <mxGeometry x="1040" y="105" width="40" height="20" as="geometry"/>
                </mxCell>
                <mxCell id="72" value="&lt;font color=&quot;#000000&quot; style=&quot;font-size: 16px&quot;&gt;بله&lt;/font&gt;" style="text;html=1;strokeColor=none;fillColor=none;align=center;verticalAlign=middle;whiteSpace=wrap;rounded=0;" parent="3" vertex="1">
                    <mxGeometry x="920" y="30" width="40" height="20" as="geometry"/>
                </mxCell>
                <mxCell id="19" value="پایان" style="ellipse;whiteSpace=wrap;html=1;rounded=0;fillColor=#0050ef;strokeColor=#001DBC;fontColor=#ffffff;" parent="3" vertex="1">
                    <mxGeometry x="2050" y="25" width="65" height="60" as="geometry"/>
                </mxCell>
                <mxCell id="81" value="&lt;font style=&quot;font-size: 18px&quot;&gt;تماس با پشتیبانی&lt;/font&gt;" style="rounded=0;whiteSpace=wrap;html=1;fillColor=#60a917;strokeColor=#2D7600;fontColor=#ffffff;" parent="3" vertex="1">
                    <mxGeometry x="1750" y="140" width="110" height="50" as="geometry"/>
                </mxCell>
                <mxCell id="15" value="Postex" style="swimlane;startSize=20;horizontal=0;fillColor=#1ba1e2;fontColor=#ffffff;strokeColor=#006EAF;" parent="2" vertex="1">
                    <mxGeometry x="20" y="295" width="2140" height="195" as="geometry"/>
                </mxCell>
                <mxCell id="18" value="&lt;font style=&quot;font-size: 15px&quot;&gt;دریافت کد رهگیری&lt;/font&gt;" style="whiteSpace=wrap;html=1;rounded=0;fillColor=#60a917;strokeColor=#2D7600;fontColor=#ffffff;" parent="15" vertex="1">
                    <mxGeometry x="1510" y="75" width="120" height="60" as="geometry"/>
                </mxCell>
                <mxCell id="21" value="کنسل کردن سفارش" style="rounded=0;whiteSpace=wrap;html=1;fillColor=#60a917;strokeColor=#2D7600;fontColor=#ffffff;" parent="15" vertex="1">
                    <mxGeometry x="1990" y="123.75" width="100" height="45" as="geometry"/>
                </mxCell>
                <mxCell id="23" value="دسترسی&amp;nbsp;&lt;br&gt;cod&lt;br&gt;دارید" style="rhombus;whiteSpace=wrap;html=1;fontColor=#ffffff;strokeColor=#6F0000;fillColor=#a20025;" parent="15" vertex="1">
                    <mxGeometry x="180" y="42.5" width="110" height="110" as="geometry"/>
                </mxCell>
                <mxCell id="25" style="edgeStyle=orthogonalEdgeStyle;rounded=0;orthogonalLoop=1;jettySize=auto;html=1;exitX=1;exitY=0.5;exitDx=0;exitDy=0;entryX=0;entryY=0.5;entryDx=0;entryDy=0;" parent="15" source="26" target="27" edge="1">
                    <mxGeometry relative="1" as="geometry"/>
                </mxCell>
                <mxCell id="26" value="&lt;font style=&quot;font-size: 15px&quot;&gt;کیف پول شارژ دارد&amp;nbsp;&lt;/font&gt;" style="rhombus;whiteSpace=wrap;html=1;fillColor=#a20025;strokeColor=#6F0000;fontColor=#ffffff;" parent="15" vertex="1">
                    <mxGeometry x="1160" y="46.25" width="140" height="122.5" as="geometry"/>
                </mxCell>
                <mxCell id="27" value="&lt;font style=&quot;font-size: 16px&quot;&gt;دریافت شماره سفارش&lt;/font&gt;" style="whiteSpace=wrap;html=1;rounded=0;fillColor=#60a917;strokeColor=#2D7600;fontColor=#ffffff;" parent="15" vertex="1">
                    <mxGeometry x="1370" y="77.5" width="120" height="60" as="geometry"/>
                </mxCell>
                <mxCell id="58" value="&lt;font style=&quot;font-size: 16px&quot; color=&quot;#000000&quot;&gt;بله&lt;/font&gt;" style="text;html=1;strokeColor=none;fillColor=none;align=center;verticalAlign=middle;whiteSpace=wrap;rounded=0;" parent="15" vertex="1">
                    <mxGeometry x="280" y="26.25" width="40" height="20" as="geometry"/>
                </mxCell>
                <mxCell id="60" value="&lt;font style=&quot;font-size: 16px&quot; color=&quot;#000000&quot;&gt;خیر&lt;/font&gt;" style="text;html=1;strokeColor=none;fillColor=none;align=center;verticalAlign=middle;whiteSpace=wrap;rounded=0;" parent="15" vertex="1">
                    <mxGeometry x="330" y="75" width="40" height="20" as="geometry"/>
                </mxCell>
                <mxCell id="61" value="ایجاد دسترسی&amp;nbsp;" style="whiteSpace=wrap;html=1;fontColor=#ffffff;strokeColor=#2D7600;fillColor=#60a917;" parent="15" vertex="1">
                    <mxGeometry x="417.5" y="46.25" width="75" height="47.5" as="geometry"/>
                </mxCell>
                <mxCell id="67" value="اعمال نوع قرارداد مشتری" style="rounded=0;whiteSpace=wrap;html=1;fillColor=#60a917;strokeColor=#2D7600;fontColor=#ffffff;" parent="15" vertex="1">
                    <mxGeometry x="870" y="67.5" width="120" height="60" as="geometry"/>
                </mxCell>
                <mxCell id="73" value="&lt;font style=&quot;font-size: 17px&quot; color=&quot;#000000&quot;&gt;بله&lt;/font&gt;" style="text;html=1;strokeColor=none;fillColor=none;align=center;verticalAlign=middle;whiteSpace=wrap;rounded=0;" parent="15" vertex="1">
                    <mxGeometry x="1310" y="87.5" width="40" height="20" as="geometry"/>
                </mxCell>
                <mxCell id="75" value="&lt;font style=&quot;font-size: 17px&quot; color=&quot;#000000&quot;&gt;خیر&lt;/font&gt;" style="text;html=1;strokeColor=none;fillColor=none;align=center;verticalAlign=middle;whiteSpace=wrap;rounded=0;" parent="15" vertex="1">
                    <mxGeometry x="1230" y="168.75" width="40" height="20" as="geometry"/>
                </mxCell>
                <mxCell id="33" value="تلاش برای برقراری ارتباط" style="whiteSpace=wrap;html=1;rounded=0;fillColor=#60a917;strokeColor=#2D7600;fontColor=#ffffff;" parent="15" vertex="1">
                    <mxGeometry x="1650" y="80" width="110" height="57.5" as="geometry"/>
                </mxCell>
                <mxCell id="86" value="بررسی تیم پشتیبانی" style="rounded=0;whiteSpace=wrap;html=1;fillColor=#60a917;strokeColor=#2D7600;fontColor=#ffffff;" parent="15" vertex="1">
                    <mxGeometry x="1800" y="83.75" width="106" height="50" as="geometry"/>
                </mxCell>
                <mxCell id="98" value="دریافت کد رهگیری" style="rounded=0;whiteSpace=wrap;html=1;fillColor=#60a917;strokeColor=#2D7600;fontColor=#ffffff;" parent="15" vertex="1">
                    <mxGeometry x="1970" y="50" width="100" height="45" as="geometry"/>
                </mxCell>
                <mxCell id="36" value="" style="edgeStyle=orthogonalEdgeStyle;rounded=0;orthogonalLoop=1;jettySize=auto;html=1;" parent="2" source="13" target="29" edge="1">
                    <mxGeometry relative="1" as="geometry">
                        <Array as="points">
                            <mxPoint x="800" y="440"/>
                            <mxPoint x="800" y="440"/>
                        </Array>
                    </mxGeometry>
                </mxCell>
                <mxCell id="40" value="" style="edgeStyle=orthogonalEdgeStyle;rounded=0;orthogonalLoop=1;jettySize=auto;html=1;" parent="2" source="31" target="18" edge="1">
                    <mxGeometry relative="1" as="geometry"/>
                </mxCell>
                <mxCell id="43" value="" style="edgeStyle=orthogonalEdgeStyle;rounded=0;orthogonalLoop=1;jettySize=auto;html=1;" parent="2" source="8" target="23" edge="1">
                    <mxGeometry relative="1" as="geometry">
                        <Array as="points">
                            <mxPoint x="380" y="170"/>
                            <mxPoint x="255" y="170"/>
                        </Array>
                    </mxGeometry>
                </mxCell>
                <mxCell id="44" style="edgeStyle=orthogonalEdgeStyle;rounded=0;orthogonalLoop=1;jettySize=auto;html=1;exitX=1;exitY=0;exitDx=0;exitDy=0;entryX=0.5;entryY=1;entryDx=0;entryDy=0;" parent="2" source="23" target="10" edge="1">
                    <mxGeometry relative="1" as="geometry">
                        <Array as="points">
                            <mxPoint x="283" y="350"/>
                            <mxPoint x="390" y="350"/>
                            <mxPoint x="390" y="170"/>
                            <mxPoint x="515" y="170"/>
                        </Array>
                    </mxGeometry>
                </mxCell>
                <mxCell id="46" style="edgeStyle=orthogonalEdgeStyle;rounded=0;orthogonalLoop=1;jettySize=auto;html=1;exitX=1;exitY=0.5;exitDx=0;exitDy=0;entryX=0.5;entryY=0;entryDx=0;entryDy=0;" parent="2" source="14" target="26" edge="1">
                    <mxGeometry relative="1" as="geometry"/>
                </mxCell>
                <mxCell id="47" value="" style="edgeStyle=orthogonalEdgeStyle;rounded=0;orthogonalLoop=1;jettySize=auto;html=1;" parent="2" source="26" target="35" edge="1">
                    <mxGeometry relative="1" as="geometry"/>
                </mxCell>
                <mxCell id="48" style="edgeStyle=orthogonalEdgeStyle;rounded=0;orthogonalLoop=1;jettySize=auto;html=1;exitX=1;exitY=0.5;exitDx=0;exitDy=0;entryX=0.25;entryY=1;entryDx=0;entryDy=0;" parent="2" source="35" target="27" edge="1">
                    <mxGeometry relative="1" as="geometry"/>
                </mxCell>
                <mxCell id="49" style="edgeStyle=orthogonalEdgeStyle;rounded=0;orthogonalLoop=1;jettySize=auto;html=1;entryX=0;entryY=0.5;entryDx=0;entryDy=0;" parent="2" target="31" edge="1">
                    <mxGeometry relative="1" as="geometry">
                        <mxPoint x="1440" y="432" as="sourcePoint"/>
                        <Array as="points">
                            <mxPoint x="1440" y="432"/>
                            <mxPoint x="1440" y="578"/>
                        </Array>
                    </mxGeometry>
                </mxCell>
                <mxCell id="22" style="edgeStyle=orthogonalEdgeStyle;rounded=0;orthogonalLoop=1;jettySize=auto;html=1;exitX=1;exitY=0.5;exitDx=0;exitDy=0;entryX=0;entryY=0.5;entryDx=0;entryDy=0;" parent="2" source="23" target="24" edge="1">
                    <mxGeometry relative="1" as="geometry">
                        <Array as="points">
                            <mxPoint x="400" y="393"/>
                            <mxPoint x="400" y="255"/>
                        </Array>
                    </mxGeometry>
                </mxCell>
                <mxCell id="62" value="" style="edgeStyle=orthogonalEdgeStyle;rounded=0;orthogonalLoop=1;jettySize=auto;html=1;" parent="2" source="24" target="61" edge="1">
                    <mxGeometry relative="1" as="geometry"/>
                </mxCell>
                <mxCell id="63" style="edgeStyle=orthogonalEdgeStyle;rounded=0;orthogonalLoop=1;jettySize=auto;html=1;exitX=1;exitY=0.5;exitDx=0;exitDy=0;entryX=0.907;entryY=0.987;entryDx=0;entryDy=0;entryPerimeter=0;" parent="2" source="61" target="10" edge="1">
                    <mxGeometry relative="1" as="geometry"/>
                </mxCell>
                <mxCell id="68" style="edgeStyle=orthogonalEdgeStyle;rounded=0;orthogonalLoop=1;jettySize=auto;html=1;exitX=1;exitY=0.5;exitDx=0;exitDy=0;entryX=0.5;entryY=1;entryDx=0;entryDy=0;" parent="2" source="29" target="67" edge="1">
                    <mxGeometry relative="1" as="geometry"/>
                </mxCell>
                <mxCell id="69" style="edgeStyle=orthogonalEdgeStyle;rounded=0;orthogonalLoop=1;jettySize=auto;html=1;exitX=0.75;exitY=0;exitDx=0;exitDy=0;entryX=0.5;entryY=1;entryDx=0;entryDy=0;" parent="2" source="67" target="16" edge="1">
                    <mxGeometry relative="1" as="geometry"/>
                </mxCell>
                <mxCell id="17" value="" style="edgeStyle=orthogonalEdgeStyle;rounded=0;orthogonalLoop=1;jettySize=auto;html=1;" parent="2" source="18" target="19" edge="1">
                    <mxGeometry relative="1" as="geometry">
                        <Array as="points">
                            <mxPoint x="1590" y="50"/>
                        </Array>
                    </mxGeometry>
                </mxCell>
                <mxCell id="30" value="" style="edgeStyle=orthogonalEdgeStyle;rounded=0;orthogonalLoop=1;jettySize=auto;html=1;" parent="2" source="31" target="33" edge="1">
                    <mxGeometry relative="1" as="geometry">
                        <Array as="points">
                            <mxPoint x="1690" y="578"/>
                        </Array>
                    </mxGeometry>
                </mxCell>
                <mxCell id="32" value="" style="edgeStyle=orthogonalEdgeStyle;rounded=0;orthogonalLoop=1;jettySize=auto;html=1;" parent="2" source="33" target="34" edge="1">
                    <mxGeometry relative="1" as="geometry">
                        <Array as="points">
                            <mxPoint x="1750" y="460"/>
                            <mxPoint x="1750" y="460"/>
                        </Array>
                    </mxGeometry>
                </mxCell>
                <mxCell id="78" style="edgeStyle=orthogonalEdgeStyle;rounded=0;orthogonalLoop=1;jettySize=auto;html=1;exitX=0;exitY=0;exitDx=0;exitDy=0;entryX=0.75;entryY=1;entryDx=0;entryDy=0;" parent="2" source="34" target="18" edge="1">
                    <mxGeometry relative="1" as="geometry">
                        <Array as="points">
                            <mxPoint x="1730" y="530"/>
                            <mxPoint x="1620" y="530"/>
                        </Array>
                    </mxGeometry>
                </mxCell>
                <mxCell id="90" style="edgeStyle=orthogonalEdgeStyle;rounded=0;orthogonalLoop=1;jettySize=auto;html=1;exitX=0.5;exitY=1;exitDx=0;exitDy=0;" parent="2" source="86" target="88" edge="1">
                    <mxGeometry relative="1" as="geometry">
                        <Array as="points">
                            <mxPoint x="1898" y="425"/>
                        </Array>
                    </mxGeometry>
                </mxCell>
                <mxCell id="28" value="vendor" style="swimlane;startSize=20;horizontal=0;fillColor=#e3c800;fontColor=#000000;strokeColor=#B09500;" parent="2" vertex="1">
                    <mxGeometry x="20" y="490" width="2140" height="170" as="geometry"/>
                </mxCell>
                <mxCell id="29" value="&lt;font style=&quot;font-size: 18px&quot;&gt;انتخاب شرکت پستی&lt;/font&gt;" style="whiteSpace=wrap;html=1;fillColor=#60a917;strokeColor=#2D7600;fontColor=#ffffff;" parent="28" vertex="1">
                    <mxGeometry x="670" y="55" width="120" height="60" as="geometry"/>
                </mxCell>
                <mxCell id="31" value="وصل شدن به گیت وی" style="rhombus;whiteSpace=wrap;html=1;rounded=0;fillColor=#a20025;strokeColor=#6F0000;fontColor=#ffffff;" parent="28" vertex="1">
                    <mxGeometry x="1440" y="40" width="110" height="95" as="geometry"/>
                </mxCell>
                <mxCell id="34" value="سایت گیت وی" style="rhombus;whiteSpace=wrap;html=1;rounded=0;fillColor=#a20025;strokeColor=#6F0000;fontColor=#ffffff;" parent="28" vertex="1">
                    <mxGeometry x="1690" y="40" width="80" height="80" as="geometry"/>
                </mxCell>
                <mxCell id="35" value="&lt;font style=&quot;font-size: 20px&quot;&gt;شارژ کیف پول&lt;/font&gt;" style="whiteSpace=wrap;html=1;fontColor=#ffffff;strokeColor=#2D7600;fillColor=#60a917;" parent="28" vertex="1">
                    <mxGeometry x="1170" y="55" width="120" height="60" as="geometry"/>
                </mxCell>
                <mxCell id="77" value="&lt;font style=&quot;font-size: 17px&quot; color=&quot;#000000&quot;&gt;بله&lt;/font&gt;" style="text;html=1;strokeColor=none;fillColor=none;align=center;verticalAlign=middle;whiteSpace=wrap;rounded=0;" parent="28" vertex="1">
                    <mxGeometry x="1460" y="20" width="40" height="20" as="geometry"/>
                </mxCell>
                <mxCell id="79" value="&lt;font color=&quot;#000000&quot; style=&quot;font-size: 17px&quot;&gt;بله&lt;/font&gt;" style="text;html=1;strokeColor=none;fillColor=none;align=center;verticalAlign=middle;whiteSpace=wrap;rounded=0;" parent="28" vertex="1">
                    <mxGeometry x="1670" y="20" width="40" height="20" as="geometry"/>
                </mxCell>
                <mxCell id="82" value="&lt;font color=&quot;#000000&quot; style=&quot;font-size: 17px&quot;&gt;خیر&lt;/font&gt;" style="text;html=1;strokeColor=none;fillColor=none;align=center;verticalAlign=middle;whiteSpace=wrap;rounded=0;" parent="28" vertex="1">
                    <mxGeometry x="1750" y="40" width="40" height="20" as="geometry"/>
                </mxCell>
                <mxCell id="88" value="دریافت کد رهگیری" style="rhombus;whiteSpace=wrap;html=1;fillColor=#a20025;strokeColor=#6F0000;fontColor=#ffffff;" parent="28" vertex="1">
                    <mxGeometry x="1830" y="33.5" width="96" height="93" as="geometry"/>
                </mxCell>
                <mxCell id="93" value="&lt;font color=&quot;#000000&quot; style=&quot;font-size: 17px&quot;&gt;بله&lt;/font&gt;" style="text;html=1;strokeColor=none;fillColor=none;align=center;verticalAlign=middle;whiteSpace=wrap;rounded=0;" parent="28" vertex="1">
                    <mxGeometry x="1886" y="20" width="40" height="20" as="geometry"/>
                </mxCell>
                <mxCell id="92" value="&lt;font color=&quot;#000000&quot; style=&quot;font-size: 17px&quot;&gt;خیر&lt;/font&gt;" style="text;html=1;strokeColor=none;fillColor=none;align=center;verticalAlign=middle;whiteSpace=wrap;rounded=0;" parent="28" vertex="1">
                    <mxGeometry x="1940" y="90" width="40" height="20" as="geometry"/>
                </mxCell>
                <mxCell id="96" style="edgeStyle=orthogonalEdgeStyle;rounded=0;orthogonalLoop=1;jettySize=auto;html=1;exitX=1;exitY=0.5;exitDx=0;exitDy=0;" parent="2" source="88" target="21" edge="1">
                    <mxGeometry relative="1" as="geometry"/>
                </mxCell>
                <mxCell id="100" style="edgeStyle=orthogonalEdgeStyle;rounded=0;orthogonalLoop=1;jettySize=auto;html=1;exitX=1;exitY=0;exitDx=0;exitDy=0;entryX=0;entryY=0.5;entryDx=0;entryDy=0;" parent="2" source="88" target="98" edge="1">
                    <mxGeometry relative="1" as="geometry">
                        <mxPoint x="1980" y="360" as="targetPoint"/>
                        <Array as="points">
                            <mxPoint x="1950" y="547"/>
                            <mxPoint x="1950" y="368"/>
                        </Array>
                    </mxGeometry>
                </mxCell>
                <mxCell id="101" style="edgeStyle=orthogonalEdgeStyle;rounded=0;orthogonalLoop=1;jettySize=auto;html=1;exitX=0.5;exitY=0;exitDx=0;exitDy=0;" parent="2" source="98" target="19" edge="1">
                    <mxGeometry relative="1" as="geometry"/>
                </mxCell>
                <mxCell id="80" style="edgeStyle=orthogonalEdgeStyle;rounded=0;orthogonalLoop=1;jettySize=auto;html=1;exitX=1;exitY=0.5;exitDx=0;exitDy=0;" parent="2" source="34" target="81" edge="1">
                    <mxGeometry relative="1" as="geometry">
                        <mxPoint x="1810" y="210" as="targetPoint"/>
                        <Array as="points">
                            <mxPoint x="1805" y="570"/>
                        </Array>
                    </mxGeometry>
                </mxCell>
                <mxCell id="102" style="edgeStyle=orthogonalEdgeStyle;rounded=0;orthogonalLoop=1;jettySize=auto;html=1;exitX=0.75;exitY=1;exitDx=0;exitDy=0;" parent="2" source="81" target="86" edge="1">
                    <mxGeometry relative="1" as="geometry"/>
                </mxCell>
                <mxCell id="50" value="ثبت اطلاعات فرستنده" style="swimlane;fontColor=#000000;" parent="1" vertex="1">
                    <mxGeometry x="130" y="1020" width="340" height="225" as="geometry">
                        <mxRectangle x="130" y="1140" width="90" height="23" as="alternateBounds"/>
                    </mxGeometry>
                </mxCell>
                <mxCell id="51" value="&lt;span style=&quot;font-size: 25px&quot;&gt;&lt;font color=&quot;#000000&quot;&gt;استان&lt;br&gt;شهر&amp;nbsp;&lt;br&gt;کد پستی&lt;br&gt;&amp;nbsp;شماره تماس&lt;/font&gt;&lt;/span&gt;" style="text;html=1;align=right;verticalAlign=middle;resizable=0;points=[];autosize=1;strokeColor=none;fontColor=#FFFFFF;" parent="50" vertex="1">
                    <mxGeometry x="180" y="50" width="120" height="80" as="geometry"/>
                </mxCell>
                <mxCell id="52" value="انتخاب خدمات پستی" style="swimlane;startSize=23;fontColor=#000000;" parent="1" vertex="1">
                    <mxGeometry x="1740" y="1015" width="310" height="235" as="geometry"/>
                </mxCell>
                <mxCell id="53" value="&lt;div style=&quot;font-size: 25px&quot;&gt;&lt;font style=&quot;font-size: 25px&quot; color=&quot;#000000&quot;&gt;چاپ فاکتور&lt;/font&gt;&lt;/div&gt;&lt;div style=&quot;font-size: 25px&quot;&gt;&lt;span&gt;&lt;font style=&quot;font-size: 25px&quot; color=&quot;#000000&quot;&gt;کد تخفیف&lt;/font&gt;&lt;/span&gt;&lt;/div&gt;&lt;div style=&quot;font-size: 25px&quot;&gt;&lt;span&gt;&lt;font style=&quot;font-size: 25px&quot; color=&quot;#000000&quot;&gt;فعال کردن اطلاع رسانی پیامکی&lt;/font&gt;&lt;/span&gt;&lt;/div&gt;&lt;div style=&quot;font-size: 25px&quot;&gt;&lt;font style=&quot;font-size: 25px&quot; color=&quot;#000000&quot;&gt;چاپ برند تجاری&amp;nbsp;&lt;/font&gt;&lt;/div&gt;" style="text;html=1;align=right;verticalAlign=middle;resizable=0;points=[];autosize=1;strokeColor=none;fontColor=#FFFFFF;" parent="52" vertex="1">
                    <mxGeometry x="15" y="80" width="280" height="60" as="geometry"/>
                </mxCell>
                <mxCell id="54" value="ثبت اطلاعات " style="swimlane;fontColor=#000000;" parent="1" vertex="1">
                    <mxGeometry x="630" y="1020" width="360" height="225" as="geometry"/>
                </mxCell>
                <mxCell id="55" value="&lt;font style=&quot;font-size: 24px&quot; color=&quot;#000000&quot;&gt;محتوایات مرسوله&amp;nbsp;&lt;br&gt;&lt;/font&gt;&lt;font style=&quot;font-size: 24px&quot;&gt;&lt;font style=&quot;font-size: 24px&quot; color=&quot;#000000&quot;&gt;وزن&amp;nbsp;&lt;br&gt;ارزش ریالی کالا&lt;br&gt;تعداد بسته ها&amp;nbsp;&lt;br&gt;وزن مرسوله&amp;nbsp;&lt;br&gt;انتخاب بیمه&amp;nbsp;&lt;/font&gt;&lt;br&gt;&lt;/font&gt;" style="text;html=1;align=right;verticalAlign=middle;resizable=0;points=[];autosize=1;strokeColor=none;fontColor=#FFFFFF;" parent="54" vertex="1">
                    <mxGeometry x="190" y="75" width="160" height="110" as="geometry"/>
                </mxCell>
                <mxCell id="56" value="ثبت اطلاعات گیرنده " style="swimlane;fontColor=#000000;" parent="1" vertex="1">
                    <mxGeometry x="1210" y="1020" width="260" height="225" as="geometry"/>
                </mxCell>
                <mxCell id="57" value="&lt;span style=&quot;font-size: 25px&quot;&gt;&lt;font color=&quot;#000000&quot;&gt;استان&lt;br&gt;شهر&amp;nbsp;&lt;br&gt;کد پستی&lt;br&gt;&amp;nbsp;شماره تماس&lt;/font&gt;&lt;/span&gt;" style="text;html=1;align=right;verticalAlign=middle;resizable=0;points=[];autosize=1;strokeColor=none;fontColor=#FFFFFF;" parent="56" vertex="1">
                    <mxGeometry x="120" y="55" width="120" height="80" as="geometry"/>
                </mxCell>
                <mxCell id="76" value="&lt;font style=&quot;font-size: 17px&quot; color=&quot;#000000&quot;&gt;خیر&lt;/font&gt;" style="text;html=1;strokeColor=none;fillColor=none;align=center;verticalAlign=middle;whiteSpace=wrap;rounded=0;" parent="1" vertex="1">
                    <mxGeometry x="1670" y="770" width="40" height="20" as="geometry"/>
                </mxCell>
                <mxCell id="103" value="قرارداد مشتری" style="swimlane;fontColor=#000000;" parent="1" vertex="1">
                    <mxGeometry x="120" y="1290" width="340" height="225" as="geometry">
                        <mxRectangle x="130" y="1140" width="90" height="23" as="alternateBounds"/>
                    </mxGeometry>
                </mxCell>
                <mxCell id="104" value="&lt;font color=&quot;#000000&quot;&gt;&lt;span style=&quot;font-size: 25px&quot;&gt;نماینده&lt;br&gt;مشتری&lt;br&gt;&lt;br&gt;&lt;/span&gt;&lt;/font&gt;" style="text;html=1;align=right;verticalAlign=middle;resizable=0;points=[];autosize=1;strokeColor=none;fontColor=#FFFFFF;" parent="103" vertex="1">
                    <mxGeometry x="230" y="60" width="70" height="60" as="geometry"/>
                </mxCell>
            </root>
        </mxGraphModel>
    </diagram>
</mxfile>